<svg xmlns="http://www.w3.org/2000/svg" viewBox="23 23 55 55">
    <defs>
        <style>.cls-1{fill:#00040c;}</style>
    </defs>
    <title>5e D&amp;amp;D logo</title>
    <g id="D_D_Logos" data-name="D&amp;D Logos">
        <g id="D_D" data-name="D&amp;D">
            <path class="cls-1" d="M37.55,36.05a8.24,8.24,0,0,1,2.32-6.84,9.62,9.62,0,0,1,7.91-2.79c5.74.31,8.49,4.24,8.49,8.48a12.49,12.49,0,0,1-2.49,6.72l-.25-.26c-.28-.28-.61-.57-1-.88a16.89,16.89,0,0,1-2.72-2.89c1.57-2.86.67-6.91-2.65-6.91a3.67,3.67,0,0,0-3.42,4.15A9.19,9.19,0,0,0,43.13,39,5,5,0,0,1,41,36.84l-1.22-2.92-1,3a5.23,5.23,0,0,0-.17,2.3h0a6.93,6.93,0,0,1-1.08-3.18M33.78,46.56c1.64-1.64,5-2.66,5.21-3.55s-1.51-2.37-2.16-2.65a10.18,10.18,0,0,1,3.57.35,4.22,4.22,0,0,1-.47-3.43c1.3,3.12,5.94,3.62,7.09,6.2a5.06,5.06,0,0,0-2.44-3.09c-.66-1.7-.17-4.82.64-5.69-.29,4.5,6.13,7.07,7.46,10.33-.79-2.8-3.77-4.57-5.19-6.24a4.53,4.53,0,0,1,.4-3.64c-.15,3,3.1,5.36,4.83,7,2.05,2,2.63,3.73,2.35,5.16a1.22,1.22,0,0,1,1,1.3,2.53,2.53,0,0,0,1.48-1.36,5.42,5.42,0,0,1-2.46,5.3,2.09,2.09,0,0,0-.28-1.89c-.66-.8-2.54-.81-3.17-.76,0,0,.77-1.16.47-1.74-.39-.73-4.06-.41-5.71.19a7.22,7.22,0,0,1,2.35.28c-.26.38-.93,2-.45,2.49s1-.33,1-.33-.57,1.77-.16,2.18,1.29.12,1.29.12c-.55,1.39-2.68,2.34-4.18,2.34a3.13,3.13,0,0,0,1.55-1.69A4.16,4.16,0,0,1,46,54a2.8,2.8,0,0,0,1.15-2.84c-.45-2-3.29-2.3-4.72-1.31a5.62,5.62,0,0,1,2.93-3.08,14.29,14.29,0,0,0-2.17-.55A8.17,8.17,0,0,1,47.54,45c-1.78-.46-5,.11-6.52,1.87a11,11,0,0,1,2.17.38,13.36,13.36,0,0,0-5.64,3.17c.21-1.18.54-2.18.27-2.89-.4-1-1.62-1.42-4-.92m18.49.22a3.67,3.67,0,0,0-2.14-2.18c.33,1.14.76,2.18,2.14,2.18M77.38,62.67c0-3.3-3.2-5.86-6.85-5.52A3.12,3.12,0,0,1,73,60c0,2.58-3.22,3.38-5,3,1.89-1.31,1.64-5.08-.63-6.42.77,2.11-1.54,4.21-3.78,2.37-1.25-1-4.13-3.43-5.42-4.47s-2.8-.43-3.39-.88-.24-2-1.17-2.5c-.77-.45-1.54-.2-2.44-.5a1.68,1.68,0,0,1-1.32-1.76,2.21,2.21,0,0,0,.25,2.4c.62.71,1.64,1.15,2.07,1.93.55,1-.38,2.42,2.06,4.34,1.17.91,3,2.41,4.16,3.45,2,1.75.93,3.92,1.19,5.82a4.61,4.61,0,0,0,3.28,3.76,3.44,3.44,0,0,1,0-4.71,6.23,6.23,0,0,0,4.47,5.57c3.24.86,6.69-1,7.41-2.27a5.12,5.12,0,0,1-4.58-1c3.8.54,7.17-2.11,7.17-5.49m-19.72-.86c-1-.89-2.53-2.15-3.67-3.06-1.3,2.22-4.07,5.12-6.87,5.12-5.16,0-7.75-7.3-2-13.28a2.68,2.68,0,0,0-.78-.12,2.37,2.37,0,0,0-1.3.35L40.8,52.39l.52-2.89A3.66,3.66,0,0,1,41.5,49a12.15,12.15,0,0,0-3.09,2.12l-2.24,2.45.24-3.45.15-.77a4.58,4.58,0,0,0,.18-1.49.42.42,0,0,0-.17-.18c-1.06.82-4,3.41-4.33,7.22a3.33,3.33,0,0,1,1-1c.33-.12.61,0,.3,1-.12.37-2.94,8,2.61,13.29,0,0-.61-1.55-.24-2,.18-.23.41-.25.73.16s.49.62.76.92h0A12,12,0,0,0,39,68.73a11.43,11.43,0,0,0,6.48,2.1c6.87,0,10.5-4.74,12.52-8.71-.09-.1-.19-.21-.3-.31M69.48,45.25c-5.11.25-9.52,4.6-11.77,7.67a3.89,3.89,0,0,1,1.22.64l1.92,1.57a27.31,27.31,0,0,1,4.08-6.48,5.43,5.43,0,0,1,7-1.06c1.13-1,5-2,7-1.39A10,10,0,0,0,72.15,43c-2.41,0-3.77,1.18-4.12.65S69.66,42,69.66,42c-2.84.12-4.91,3.47-5.77,3-.51-.25.77-1.86.77-1.86a12.46,12.46,0,0,0-5.23,6.66c2.39-2.93,7-5,10.05-4.59m.86,13A2,2,0,0,1,71.87,60a1.56,1.56,0,0,1-.81,1.37,3.3,3.3,0,0,1-.83.36A5.59,5.59,0,0,0,70.45,60c0-1.09-.11-1.69-.11-1.69"/>
        </g>
    </g>
</svg>